<svg xmlns="http://www.w3.org/2000/svg" width="19.713" height="19" viewBox="0 0 19.713 19">
  <g id="_9004824_star_favorite_award_like_icon" data-name="9004824_star_favorite_award_like_icon" transform="translate(-0.001 -0.868)">
    <g id="Icons" transform="translate(0.828 1.69)">
      <path id="Path_1447" data-name="Path 1447" d="M10.853,17.513l2.875,1.51a1.751,1.751,0,0,0,2.537-1.848l-.548-3.2a1.749,1.749,0,0,1,.5-1.55l2.323-2.265a1.751,1.751,0,0,0-.97-2.986l-3.211-.467a1.752,1.752,0,0,1-1.314-.958l-1.44-2.907a1.751,1.751,0,0,0-3.14,0L7.032,5.755a1.752,1.752,0,0,1-1.314.958L2.506,7.18a1.751,1.751,0,0,0-.97,2.986l2.323,2.265a1.749,1.749,0,0,1,.5,1.55l-.552,3.193a1.751,1.751,0,0,0,2.54,1.848l2.875-1.51a1.754,1.754,0,0,1,1.627,0Z" transform="translate(-1.007 -1.868)" fill="#ffce69"/>
      <path id="Path_1448" data-name="Path 1448" d="M14.33,21.486l-2.875-1.512a1.776,1.776,0,0,0-1.627,0L6.953,21.486a1.751,1.751,0,0,1-2.538-1.848l.452-2.612a1.737,1.737,0,0,0,2.087.353l2.875-1.512a1.776,1.776,0,0,1,1.627,0l2.875,1.512a1.737,1.737,0,0,0,2.087-.353l.452,2.612a1.751,1.751,0,0,1-2.538,1.848Z" transform="translate(-1.611 -4.331)" fill="#f19b5f"/>
    </g>
    <g id="Layer_4" data-name="Layer 4" transform="translate(0.001 0.868)">
      <path id="Path_1449" data-name="Path 1449" d="M18.939,10.574a2.573,2.573,0,0,0-1.427-4.388L14.3,5.72a.928.928,0,0,1-.7-.509L12.165,2.3a2.572,2.572,0,0,0-4.614,0L6.116,5.211a.928.928,0,0,1-.7.509l-3.211.467A2.573,2.573,0,0,0,.778,10.575L3.1,12.839a.929.929,0,0,1,.268.822l-.548,3.2a2.572,2.572,0,0,0,3.731,2.711l2.875-1.51a.924.924,0,0,1,.864,0h0l2.875,1.51A2.573,2.573,0,0,0,16.9,16.856l-.554-3.195a.928.928,0,0,1,.268-.822Zm-3.472,1.089a2.572,2.572,0,0,0-.739,2.277l.548,3.2a.929.929,0,0,1-1.349.98l-2.875-1.51a2.575,2.575,0,0,0-2.394,0l-2.875,1.51a.929.929,0,0,1-1.349-.98l.548-3.2a2.573,2.573,0,0,0-.739-2.278L1.926,9.4a.93.93,0,0,1,.515-1.586l3.211-.467A2.57,2.57,0,0,0,7.589,5.938L9.025,3.03a.957.957,0,0,1,1.668,0l1.436,2.908a2.57,2.57,0,0,0,1.936,1.407l3.211.467A.93.93,0,0,1,17.791,9.4Z" transform="translate(-0.001 -0.868)" fill="#6c2e7c"/>
    </g>
  </g>
</svg>
