<svg xmlns="http://www.w3.org/2000/svg" width="17.638" height="22.164" viewBox="0 0 17.638 22.164">
  <g id="_2530843_document_general_letter_note_office_icon" data-name="2530843_document_general_letter_note_office_icon" transform="translate(-9.916 -0.925)">
    <g id="Group_16127" data-name="Group 16127" transform="translate(9.916 0.925)">
      <path id="Path_1440" data-name="Path 1440" d="M22.664,7.372V3.438H12.429V24.363H26.851a1.984,1.984,0,0,0,1.977-1.978V9.35H24.642A1.984,1.984,0,0,1,22.664,7.372Z" transform="translate(-11.81 -2.819)" fill="#fdf5db"/>
      <path id="Path_1441" data-name="Path 1441" d="M24.957,23.089H10.535a.619.619,0,0,1-.619-.62V1.544a.619.619,0,0,1,.619-.619H20.77a.619.619,0,0,1,.619.619V5.478a1.361,1.361,0,0,0,1.359,1.359h4.186a.619.619,0,0,1,.62.619V20.491A2.6,2.6,0,0,1,24.957,23.089Zm-13.8-1.238h13.8a1.361,1.361,0,0,0,1.358-1.359V8.076H22.749a2.6,2.6,0,0,1-2.6-2.6V2.164h-9Z" transform="translate(-9.916 -0.925)" fill="#454b53"/>
    </g>
    <path id="Path_1442" data-name="Path 1442" d="M33.827,43.377h-9.7a.619.619,0,0,1,0-1.239h9.7a.619.619,0,0,1,0,1.239Z" transform="translate(-10.242 -31.056)" fill="#454b53"/>
    <path id="Path_1443" data-name="Path 1443" d="M26.569,57.184H24.126a.619.619,0,1,1,0-1.239h2.443a.619.619,0,1,1,0,1.239Z" transform="translate(-10.241 -41.46)" fill="#454b53"/>
    <path id="Path_1444" data-name="Path 1444" d="M47.13,57.184h-1.2a.619.619,0,0,1,0-1.239h1.2a.619.619,0,1,1,0,1.239Z" transform="translate(-26.668 -41.46)" fill="#454b53"/>
    <g id="Group_16128" data-name="Group 16128" transform="translate(20.151 0.925)">
      <path id="Path_1445" data-name="Path 1445" d="M60.122,9.35,53.958,3.438V7.372A1.983,1.983,0,0,0,55.936,9.35Z" transform="translate(-53.339 -2.819)" fill="#b0e0d4"/>
      <path id="Path_1446" data-name="Path 1446" d="M58.228,8.076H54.042a2.6,2.6,0,0,1-2.6-2.6V1.545A.619.619,0,0,1,52.493,1.1l6.164,5.912a.619.619,0,0,1-.428,1.066ZM52.684,3V5.478a1.36,1.36,0,0,0,1.359,1.358h2.645Z" transform="translate(-51.445 -0.925)" fill="#454b53"/>
    </g>
  </g>
</svg>
